<?xml version="1.0" encoding="UTF-8" standalone="no"?>
<svg width="220px" height="56px" viewBox="0 0 220 56" version="1.1" xmlns="http://www.w3.org/2000/svg" xmlns:xlink="http://www.w3.org/1999/xlink" xmlns:sketch="http://www.bohemiancoding.com/sketch/ns">
    <!-- Generator: Sketch 3.0.4 (8054) - http://www.bohemiancoding.com/sketch -->
    <title>logo</title>
    <desc>Created with Sketch.</desc>
    <defs></defs>
    <g id="Page-1" stroke="none" stroke-width="1" fill="none" fill-rule="evenodd" sketch:type="MSPage">
        <g id="logo" sketch:type="MSLayerGroup" transform="translate(0.000000, 2.000000)">
            <g id="Rectangle-1-+-Rectangle-3" sketch:type="MSShapeGroup">
                <rect id="Rectangle-1" fill="#4990E2" x="0" y="9" width="80" height="45"></rect>
                <rect id="Rectangle-2" stroke="#FFFFFF" stroke-width="3" fill="#50E3C2" x="10" y="0" width="80" height="45"></rect>
            </g>
            <path d="M108.837891,35.3144531 C109.259768,35.3144531 109.678709,35.25586 110.094727,35.1386719 C110.510744,35.0214838 110.879881,34.848634 111.202148,34.6201172 C111.524416,34.3916004 111.785155,34.1103532 111.984375,33.7763672 C112.183595,33.4423811 112.283203,33.0585959 112.283203,32.625 C112.283203,32.0976536 112.148439,31.631838 111.878906,31.2275391 C111.609374,30.8232402 111.254885,30.4482439 110.81543,30.1025391 C110.375974,29.7568342 109.875003,29.4345718 109.3125,29.1357422 C108.749997,28.8369126 108.172855,28.5351578 107.581055,28.2304688 C106.989255,27.9257797 106.412112,27.6093766 105.849609,27.28125 C105.287107,26.9531234 104.786135,26.5839864 104.34668,26.1738281 C103.907224,25.7636698 103.552736,25.3066431 103.283203,24.8027344 C103.013671,24.2988256 102.878906,23.7187533 102.878906,23.0625 C102.878906,22.4062467 103.001952,21.7998075 103.248047,21.2431641 C103.494142,20.6865207 103.85449,20.2031271 104.329102,19.7929688 C104.803713,19.3828104 105.386715,19.060548 106.078125,18.8261719 C106.769535,18.5917957 107.566402,18.4746094 108.46875,18.4746094 C110.097664,18.4746094 111.380855,18.8144497 112.318359,19.4941406 C113.255864,20.1738315 113.935545,21.1581967 114.357422,22.4472656 L112.880859,23.1152344 C112.541014,22.0605416 112.001957,21.2080111 111.263672,20.5576172 C110.525387,19.9072233 109.546881,19.5820312 108.328125,19.5820312 C107.78906,19.5820312 107.317385,19.6582024 106.913086,19.8105469 C106.508787,19.9628914 106.171876,20.1591785 105.902344,20.3994141 C105.632811,20.6396496 105.430665,20.9150375 105.295898,21.2255859 C105.161132,21.5361344 105.09375,21.8496078 105.09375,22.1660156 C105.09375,22.6113304 105.231444,23.0214825 105.506836,23.3964844 C105.782228,23.7714863 106.148435,24.1259749 106.605469,24.4599609 C107.062502,24.793947 107.581052,25.1162094 108.161133,25.4267578 C108.741214,25.7373062 109.333005,26.0507797 109.936523,26.3671875 C110.540042,26.6835953 111.131833,27.0175764 111.711914,27.3691406 C112.291995,27.7207049 112.810545,28.0986308 113.267578,28.5029297 C113.724612,28.9072286 114.090819,29.3554663 114.366211,29.8476562 C114.641603,30.3398462 114.779297,30.8847626 114.779297,31.4824219 C114.779297,32.1621128 114.650392,32.8007783 114.392578,33.3984375 C114.134764,33.9960967 113.748049,34.5175759 113.232422,34.9628906 C112.716794,35.4082054 112.075199,35.7597643 111.307617,36.0175781 C110.540035,36.2753919 109.646489,36.4042969 108.626953,36.4042969 C106.98632,36.4042969 105.679692,36.0498082 104.707031,35.3408203 C103.73437,34.6318324 103.019534,33.6445376 102.5625,32.3789062 L104.109375,31.7460938 C104.472658,32.8710994 105.070308,33.7470672 105.902344,34.3740234 C106.734379,35.0009797 107.712885,35.3144531 108.837891,35.3144531 Z M120.175781,36 L117.539062,36 L117.539062,16.7695312 L119.419922,16.0136719 L120.175781,16.0136719 L120.175781,36 Z M124.763672,16.0136719 C124.97461,16.0136719 125.170898,16.0488278 125.352539,16.1191406 C125.534181,16.1894535 125.692382,16.2861322 125.827148,16.4091797 C125.961915,16.5322272 126.070312,16.6728508 126.152344,16.8310547 C126.234375,16.9892586 126.275391,17.1562491 126.275391,17.3320312 C126.275391,17.5078134 126.234375,17.6777336 126.152344,17.8417969 C126.070312,18.0058602 125.961915,18.1464838 125.827148,18.2636719 C125.692382,18.38086 125.534181,18.474609 125.352539,18.5449219 C125.170898,18.6152347 124.97461,18.6503906 124.763672,18.6503906 C124.353514,18.6503906 124.001955,18.5214857 123.708984,18.2636719 C123.416014,18.0058581 123.269531,17.6953143 123.269531,17.3320312 C123.269531,17.1562491 123.310546,16.9892586 123.392578,16.8310547 C123.47461,16.6728508 123.583007,16.5322272 123.717773,16.4091797 C123.85254,16.2861322 124.010741,16.1894535 124.192383,16.1191406 C124.374024,16.0488278 124.564452,16.0136719 124.763672,16.0136719 Z M123.480469,23.2734375 L125.326172,22.5175781 L126.099609,22.5175781 L126.099609,36 L123.480469,36 L123.480469,23.2734375 Z M138.632812,34.7167969 C138.328123,34.9628919 138.000002,35.1826162 137.648438,35.3759766 C137.296873,35.5693369 136.930666,35.7333978 136.549805,35.8681641 C136.168943,36.0029304 135.782229,36.1054684 135.389648,36.1757812 C134.997068,36.2460941 134.619142,36.28125 134.255859,36.28125 C133.482418,36.28125 132.755863,36.1025408 132.076172,35.7451172 C131.396481,35.3876935 130.80469,34.9013703 130.300781,34.2861328 C129.796872,33.6708954 129.398439,32.9560588 129.105469,32.1416016 C128.812499,31.3271444 128.666016,30.4687545 128.666016,29.5664062 C128.666016,28.6757768 128.847654,27.8056683 129.210938,26.9560547 C129.574221,26.1064411 130.072262,25.3535189 130.705078,24.6972656 C131.337894,24.0410123 132.076168,23.5136739 132.919922,23.1152344 C133.763676,22.7167949 134.660152,22.5175781 135.609375,22.5175781 C136.253909,22.5175781 136.816404,22.6289051 137.296875,22.8515625 C137.777346,23.0742199 138.222654,23.373045 138.632812,23.7480469 L138.632812,16.7695312 L140.478516,16.0136719 L141.251953,16.0136719 L141.251953,36.28125 L138.632812,36.28125 L138.632812,34.7167969 Z M138.632812,26.9824219 C138.632812,26.4667943 138.536134,25.9951193 138.342773,25.5673828 C138.149413,25.1396463 137.897462,24.773439 137.586914,24.46875 C137.276366,24.164061 136.924807,23.9267587 136.532227,23.7568359 C136.139646,23.5869132 135.744143,23.5019531 135.345703,23.5019531 C134.818357,23.5019531 134.326174,23.6308581 133.869141,23.8886719 C133.412107,24.1464857 133.013674,24.5097633 132.673828,24.9785156 C132.333983,25.447268 132.067384,26.0068327 131.874023,26.6572266 C131.680663,27.3076204 131.583984,28.0253867 131.583984,28.8105469 C131.583984,29.6543011 131.692382,30.4423792 131.90918,31.1748047 C132.125978,31.9072302 132.421873,32.5458957 132.796875,33.0908203 C133.171877,33.6357449 133.611326,34.0664047 134.115234,34.3828125 C134.619143,34.6992203 135.1582,34.8574219 135.732422,34.8574219 C136.294925,34.8574219 136.836911,34.7226576 137.358398,34.453125 C137.879885,34.1835924 138.304686,33.8671893 138.632812,33.5039062 L138.632812,26.9824219 Z M150.181641,36.28125 C149.291011,36.28125 148.453129,36.1142595 147.667969,35.7802734 C146.882809,35.4462874 146.194339,34.9892607 145.602539,34.4091797 C145.010739,33.8290987 144.544924,33.149418 144.205078,32.3701172 C143.865233,31.5908164 143.695312,30.7617231 143.695312,29.8828125 C143.695312,28.8281197 143.850584,27.8496139 144.161133,26.9472656 C144.471681,26.0449174 144.91113,25.2656283 145.479492,24.609375 C146.047854,23.9531217 146.730465,23.4404315 147.527344,23.0712891 C148.324223,22.7021466 149.214839,22.5175781 150.199219,22.5175781 C151.066411,22.5175781 151.860348,22.6699204 152.581055,22.9746094 C153.301761,23.2792984 153.922849,23.6894505 154.444336,24.2050781 C154.965823,24.7207057 155.370116,25.3124967 155.657227,25.9804688 C155.944337,26.6484408 156.087891,27.3515588 156.087891,28.0898438 L146.226562,28.0898438 C146.226562,28.9804732 146.340819,29.8037072 146.569336,30.5595703 C146.797853,31.3154335 147.120115,31.9687472 147.536133,32.5195312 C147.952151,33.0703153 148.444333,33.500975 149.012695,33.8115234 C149.581058,34.1220719 150.205075,34.2773438 150.884766,34.2773438 C151.458987,34.2773438 152.006833,34.1865243 152.52832,34.0048828 C153.049807,33.8232413 153.524412,33.5800796 153.952148,33.2753906 C154.379885,32.9707016 154.743163,32.6250019 155.041992,32.2382812 C155.340822,31.8515606 155.554687,31.4531271 155.683594,31.0429688 L156.439453,31.3769531 C156.251952,32.056644 155.947268,32.6923799 155.525391,33.2841797 C155.103514,33.8759795 154.611331,34.394529 154.048828,34.8398438 C153.486325,35.2851585 152.871097,35.6367175 152.203125,35.8945312 C151.535153,36.152345 150.861332,36.28125 150.181641,36.28125 Z M152.800781,27.0351562 C152.800781,26.5312475 152.712892,26.0654318 152.537109,25.6376953 C152.361327,25.2099588 152.118166,24.8378922 151.807617,24.5214844 C151.497069,24.2050765 151.133791,23.9560556 150.717773,23.7744141 C150.301756,23.5927725 149.859377,23.5019531 149.390625,23.5019531 C148.992186,23.5019531 148.61133,23.5898429 148.248047,23.765625 C147.884764,23.9414071 147.562501,24.1874984 147.28125,24.5039062 C146.999999,24.8203141 146.765626,25.1923807 146.578125,25.6201172 C146.390624,26.0478537 146.279297,26.5136694 146.244141,27.0175781 L152.800781,27.0351562 Z M158.759766,22.78125 L161.396484,22.78125 L161.396484,25.1894531 C162.193363,24.2988237 163.022457,23.6308616 163.883789,23.1855469 C164.745121,22.7402321 165.621089,22.5175781 166.511719,22.5175781 C166.968752,22.5175781 167.399412,22.6230458 167.803711,22.8339844 C168.20801,23.0449229 168.559569,23.3290998 168.858398,23.6865234 C169.157228,24.0439471 169.39453,24.4658179 169.570312,24.9521484 C169.746095,25.438479 169.833984,25.9570285 169.833984,26.5078125 L169.833984,36 L167.214844,36 L167.214844,26.9648438 C167.214844,26.0859331 167.018557,25.4209007 166.625977,24.9697266 C166.233396,24.5185524 165.726566,24.2929688 165.105469,24.2929688 C164.542966,24.2929688 163.933597,24.4687482 163.277344,24.8203125 C162.62109,25.1718768 161.994144,25.6347628 161.396484,26.2089844 L161.396484,36 L158.759766,36 L158.759766,22.78125 Z M182.578125,36 L179.941406,36 L179.941406,34.1894531 C179.636717,34.4238293 179.334962,34.6669909 179.036133,34.9189453 C178.737303,35.1708997 178.412111,35.3964834 178.060547,35.5957031 C177.708983,35.7949229 177.322268,35.9589837 176.900391,36.0878906 C176.478514,36.2167975 175.986331,36.28125 175.423828,36.28125 C174.908201,36.28125 174.442385,36.1962899 174.026367,36.0263672 C173.610349,35.8564445 173.255861,35.6250015 172.962891,35.3320312 C172.66992,35.039061 172.444337,34.6933614 172.286133,34.2949219 C172.127929,33.8964824 172.048828,33.462893 172.048828,32.9941406 C172.048828,32.419919 172.163085,31.9072288 172.391602,31.4560547 C172.620118,31.0048806 172.927732,30.5976581 173.314453,30.234375 C173.701174,29.8710919 174.152341,29.5517592 174.667969,29.2763672 C175.183596,29.0009752 175.734372,28.7519542 176.320312,28.5292969 C176.906253,28.3066395 177.509763,28.1103524 178.130859,27.9404297 C178.751956,27.770507 179.355466,27.6093758 179.941406,27.4570312 L179.941406,26.6308594 C179.941406,26.0214813 179.882813,25.5117208 179.765625,25.1015625 C179.648437,24.6914042 179.478517,24.3603528 179.255859,24.1083984 C179.033202,23.8564441 178.763673,23.6748052 178.447266,23.5634766 C178.130858,23.4521479 177.779299,23.3964844 177.392578,23.3964844 C176.947263,23.3964844 176.583986,23.4550775 176.302734,23.5722656 C176.021483,23.6894537 175.801759,23.8417959 175.643555,24.0292969 C175.485351,24.2167978 175.376953,24.4306629 175.318359,24.6708984 C175.259765,24.911134 175.230469,25.1542956 175.230469,25.4003906 C175.230469,25.6347668 175.212891,25.8574208 175.177734,26.0683594 C175.142578,26.2792979 175.075196,26.4638664 174.975586,26.6220703 C174.875976,26.7802742 174.741212,26.9091792 174.571289,27.0087891 C174.401366,27.1083989 174.187501,27.1582031 173.929688,27.1582031 C173.519529,27.1582031 173.188478,27.0117202 172.936523,26.71875 C172.684569,26.4257798 172.558594,26.0566429 172.558594,25.6113281 C172.558594,25.1777322 172.702147,24.7705097 172.989258,24.3896484 C173.276369,24.0087872 173.663084,23.6806654 174.149414,23.4052734 C174.635745,23.1298814 175.201169,22.9130867 175.845703,22.7548828 C176.490238,22.5966789 177.169918,22.5175781 177.884766,22.5175781 C178.751957,22.5175781 179.484372,22.5996086 180.082031,22.7636719 C180.67969,22.9277352 181.163084,23.1650375 181.532227,23.4755859 C181.901369,23.7861344 182.167968,24.1552713 182.332031,24.5830078 C182.496095,25.0107443 182.578125,25.4882786 182.578125,26.015625 L182.578125,36 Z M179.941406,28.3007812 C179.378903,28.4765634 178.787112,28.6962877 178.166016,28.9599609 C177.544919,29.2236341 176.976565,29.5253889 176.460938,29.8652344 C175.94531,30.2050798 175.51758,30.5771464 175.177734,30.9814453 C174.837889,31.3857442 174.667969,31.8222633 174.667969,32.2910156 C174.667969,32.6191423 174.726562,32.9267564 174.84375,33.2138672 C174.960938,33.500978 175.11914,33.7529286 175.318359,33.9697266 C175.517579,34.1865245 175.746092,34.3593744 176.003906,34.4882812 C176.26172,34.6171881 176.531249,34.6816406 176.8125,34.6816406 C177.39844,34.6816406 177.937498,34.5380874 178.429688,34.2509766 C178.921877,33.9638658 179.425779,33.6269551 179.941406,33.2402344 L179.941406,28.3007812 Z M193.125,34.3125 C192.773436,34.921878 192.30469,35.402342 191.71875,35.7539062 C191.13281,36.1054705 190.417973,36.28125 189.574219,36.28125 C188.683589,36.28125 188.030276,35.9970732 187.614258,35.4287109 C187.19824,34.8603487 186.990234,34.1191452 186.990234,33.2050781 L186.990234,23.8886719 L184.6875,23.8886719 L184.6875,23.2382812 C185.425785,23.2382812 186.035154,23.1064466 186.515625,22.8427734 C186.996096,22.5791002 187.38867,22.2187523 187.693359,21.7617188 C187.998048,21.3046852 188.235351,20.7744171 188.405273,20.1708984 C188.575196,19.5673798 188.724609,18.931644 188.853516,18.2636719 L189.609375,18.2636719 L189.609375,22.78125 L192.5625,22.78125 L192.5625,23.8886719 L189.609375,23.8886719 L189.609375,33.2050781 C189.609375,33.6035176 189.744139,33.9404283 190.013672,34.2158203 C190.283204,34.4912123 190.623045,34.6289062 191.033203,34.6289062 C191.326173,34.6289062 191.592772,34.5556648 191.833008,34.4091797 C192.073243,34.2626946 192.287108,34.0839854 192.474609,33.8730469 L193.125,34.3125 Z M201.158203,36.28125 C200.138667,36.28125 199.201176,36.1054705 198.345703,35.7539062 C197.49023,35.402342 196.751956,34.921878 196.130859,34.3125 C195.509763,33.703122 195.026369,32.991215 194.680664,32.1767578 C194.334959,31.3623006 194.162109,30.4921921 194.162109,29.5664062 C194.162109,28.5937451 194.334959,27.6796918 194.680664,26.8242188 C195.026369,25.9687457 195.509763,25.2216829 196.130859,24.5830078 C196.751956,23.9443327 197.49023,23.4404315 198.345703,23.0712891 C199.201176,22.7021466 200.138667,22.5175781 201.158203,22.5175781 C202.154302,22.5175781 203.080074,22.6874983 203.935547,23.0273438 C204.79102,23.3671892 205.526364,23.8300752 206.141602,24.4160156 C206.756839,25.0019561 207.240233,25.6874961 207.591797,26.4726562 C207.943361,27.2578164 208.119141,28.101558 208.119141,29.0039062 C208.119141,30.0117238 207.943361,30.9550737 207.591797,31.8339844 C207.240233,32.712895 206.756839,33.4833951 206.141602,34.1455078 C205.526364,34.8076205 204.79102,35.3290997 203.935547,35.7099609 C203.080074,36.0908222 202.154302,36.28125 201.158203,36.28125 Z M201.650391,35.3144531 C202.166018,35.3144531 202.637693,35.1826185 203.06543,34.9189453 C203.493166,34.6552721 203.862303,34.2978538 204.172852,33.8466797 C204.4834,33.3955056 204.726562,32.8710967 204.902344,32.2734375 C205.078126,31.6757783 205.166016,31.0429721 205.166016,30.375 C205.166016,29.4140577 205.083985,28.5175823 204.919922,27.6855469 C204.755859,26.8535115 204.48926,26.1269562 204.120117,25.5058594 C203.750975,24.8847625 203.270511,24.3955096 202.678711,24.0380859 C202.086911,23.6806623 201.363286,23.5019531 200.507812,23.5019531 C200.062498,23.5019531 199.634768,23.6308581 199.224609,23.8886719 C198.814451,24.1464857 198.451173,24.495115 198.134766,24.9345703 C197.818358,25.3740256 197.566407,25.8867158 197.378906,26.4726562 C197.191405,27.0585967 197.097656,27.6855435 197.097656,28.3535156 C197.097656,29.3144579 197.200194,30.2167927 197.405273,31.0605469 C197.610353,31.9043011 197.906248,32.642575 198.292969,33.2753906 C198.679689,33.9082063 199.154294,34.4062482 199.716797,34.7695312 C200.2793,35.1328143 200.923824,35.3144531 201.650391,35.3144531 Z M210.632812,22.78125 L213.251953,22.78125 L213.251953,25.2773438 C213.509767,24.9140607 213.785155,24.5654314 214.078125,24.2314453 C214.371095,23.8974593 214.67578,23.6015638 214.992188,23.34375 C215.308595,23.0859362 215.639647,22.8837898 215.985352,22.7373047 C216.331056,22.5908196 216.679686,22.5175781 217.03125,22.5175781 C217.312501,22.5175781 217.5791,22.561523 217.831055,22.6494141 C218.083009,22.7373051 218.299804,22.8515618 218.481445,22.9921875 C218.663087,23.1328132 218.80664,23.2998037 218.912109,23.4931641 C219.017579,23.6865244 219.070312,23.8886708 219.070312,24.0996094 C219.070312,24.5214865 218.938478,24.8437489 218.674805,25.0664062 C218.411131,25.2890636 218.039065,25.4003906 217.558594,25.4003906 C217.265624,25.4003906 217.028321,25.3681644 216.84668,25.3037109 C216.665038,25.2392575 216.503907,25.1689457 216.363281,25.0927734 C216.222656,25.0166012 216.079102,24.9462894 215.932617,24.8818359 C215.786132,24.8173825 215.601564,24.7851562 215.378906,24.7851562 C215.027342,24.7851562 214.678713,24.9785137 214.333008,25.3652344 C213.987303,25.7519551 213.626955,26.2441376 213.251953,26.8417969 L213.251953,36 L210.632812,36 L210.632812,22.78125 Z" id="Slidenator-2" fill="#000000" sketch:type="MSShapeGroup"></path>
        </g>
    </g>
</svg>